HIERARCHY
ROOT Hips
{
	OFFSET	0.00	0.00	0.00
	CHANNELS 6 Xposition Yposition Zposition Zrotation Xrotation Yrotation
	JOINT LeftHip
	{
		OFFSET	 3.430000	 0.000000	 0.000000
		CHANNELS 3 Zrotation Xrotation Yrotation
		JOINT LeftKnee
		{
			OFFSET	 0.000000	-18.469999	 0.000000
			CHANNELS 3 Zrotation Xrotation Yrotation
			JOINT LeftAnkle
			{
				OFFSET	 0.000000	-17.950001	 0.000000
				CHANNELS 3 Zrotation Xrotation Yrotation
				End Site 
				{
					OFFSET	 0.000000	-3.119996	 0.000000
				}
			}
		}
	}
	JOINT RightHip
	{
		OFFSET	-3.430000	 0.000000	 0.000000
		CHANNELS 3 Zrotation Xrotation Yrotation
		JOINT RightKnee
		{
			OFFSET	 0.000000	-18.809999	 0.000000
			CHANNELS 3 Zrotation Xrotation Yrotation
			JOINT RightAnkle
			{
				OFFSET	 0.000000	-17.570000	 0.000000
				CHANNELS 3 Zrotation Xrotation Yrotation
				End Site 
				{
					OFFSET	 0.000000	-3.250000	 0.000000
				}
			}
		}
	}
	JOINT Chest
	{
		OFFSET	 0.000000	 4.570000	 0.000000
		CHANNELS 3 Zrotation Xrotation Yrotation
		JOINT LeftCollar
		{
			OFFSET	 1.060000	 15.330000	 1.760000
			CHANNELS 3 Zrotation Xrotation Yrotation
			JOINT LeftShoulder
			{
				OFFSET	 5.810000	 0.000000	 0.000000
				CHANNELS 3 Zrotation Xrotation Yrotation
				JOINT LeftElbow
				{
					OFFSET	 0.000000	-12.080000	 0.000000
					CHANNELS 3 Zrotation Xrotation Yrotation
					JOINT LeftWrist
					{
						OFFSET	 0.000000	-9.820000	 0.000000
						CHANNELS 3 Zrotation Xrotation Yrotation
						End Site 
						{
							OFFSET	 0.000000	-7.369996	 0.000000
						}
					}
				}
			}
		}
		JOINT RightCollar
		{
			OFFSET	-1.060000	 15.330000	 1.760000
			CHANNELS 3 Zrotation Xrotation Yrotation
			JOINT RightShoulder
			{
				OFFSET	-6.060000	 0.000000	 0.000000
				CHANNELS 3 Zrotation Xrotation Yrotation
				JOINT RightElbow
				{
					OFFSET	 0.000000	-11.900000	 0.000000
					CHANNELS 3 Zrotation Xrotation Yrotation
					JOINT RightWrist
					{
						OFFSET	 0.000000	-9.520000	 0.000000
						CHANNELS 3 Zrotation Xrotation Yrotation
						End Site 
						{
							OFFSET	 0.000000	-7.140012	 0.000000
						}
					}
				}
			}
		}
		JOINT Neck
		{
			OFFSET	 0.000000	 17.620001	 0.000000
			CHANNELS 3 Zrotation Xrotation Yrotation
			JOINT Head
			{
				OFFSET	 0.000000	 5.190000	 0.000000
				CHANNELS 3 Zrotation Xrotation Yrotation
				End Site 
				{
					OFFSET	 0.000000	 4.140008	 0.000000
				}
			}
		}
	}
}

MOTION
Frames: 9
Frame Time: 0.033333
-41.0229 1.9424 -44.9486 1.616 1.97951 73.2689 9.31424 -8.67103 7.21135 -1.09824 11.374 4.21421 -12.0331 2.58448 -2.26871 -8.35232 6.73341 -17.9749 0.365456 7.92174 -1.57453 4.17146 -11.9849 -4.19377 3.60863 1.31305 0.487228 0 0 0 15.4567 7.28934 3.24223 -69.0197 -42.9236 -45.7335 21.7566 -23.111 -1.63831 0 0 0 -16.3527 -7.32899 -0.312049 50.2775 -56.5386 41.5943 -25.7608 -20.55 17.6812 0 0 0 -0.732455 5.68482 15.9343 
-41.0203 1.9407 -44.9451 1.61224 1.98185 73.2819 9.30895 -8.67252 7.20046 -1.09259 11.3809 4.21298 -12.0415 2.57158 -2.26979 -8.34326 6.74714 -17.9845 0.356409 7.90743 -1.57993 4.17789 -11.9873 -4.1933 3.61556 1.30446 0.467321 0 0 0 15.4648 7.30682 3.24145 -69.0117 -42.9209 -45.7259 21.7759 -23.125 -1.61695 0 0 0 -16.3535 -7.31671 -0.290969 50.296 -56.5211 41.6148 -25.779 -20.5379 17.6682 0 0 0 -0.745389 5.69906 15.9753 
-41.0156 1.9395 -44.9457 1.61287 1.98122 73.2939 9.30849 -8.66851 7.18702 -1.09344 11.3801 4.21552 -12.04 2.57598 -2.26979 -8.33825 6.76827 -17.9876 0.356061 7.8912 -1.58935 4.1822 -11.989 -4.19312 3.62353 1.31166 0.453019 0 0 0 15.4746 7.31201 3.24109 -69.0074 -42.9189 -45.7207 21.8023 -23.1233 -1.59888 0 0 0 -16.3496 -7.30992 -0.273321 50.3145 -56.5031 41.6338 -25.7958 -20.5119 17.664 0 0 0 -0.759672 5.7055 16.0129 
-41.0123 1.9362 -44.9436 1.61393 1.97869 73.2952 9.30472 -8.66603 7.18657 -1.08564 11.3789 4.21091 -12.044 2.57818 -2.2681 -8.33199 6.78823 -17.9787 0.356807 7.86976 -1.60128 4.18464 -11.9854 -4.19225 3.62633 1.30886 0.449417 0 0 0 15.4889 7.32731 3.23787 -68.9969 -42.9152 -45.7076 21.8505 -23.1126 -1.5757 0 0 0 -16.3404 -7.29254 -0.236009 50.32 -56.4917 41.6428 -25.817 -20.4791 17.6539 0 0 0 -0.778175 5.72084 16.0586 
-41.0073 1.9311 -44.9411 1.61477 1.97884 73.3074 9.2981 -8.65677 7.17243 -1.08186 11.3781 4.21233 -12.0536 2.57449 -2.26559 -8.32393 6.82041 -17.9741 0.355375 7.83629 -1.62397 4.1935 -11.9844 -4.18221 3.63869 1.31596 0.436015 0 0 0 15.5056 7.33882 3.23382 -68.9814 -42.9173 -45.6842 21.9074 -23.1018 -1.54372 0 0 0 -16.3284 -7.28026 -0.181362 50.3316 -56.4719 41.6674 -25.8551 -20.4282 17.631 0 0 0 -0.819775 5.73111 16.1397 
-40.9997 1.9286 -44.9411 1.60751 1.98103 73.3231 9.28907 -8.65571 7.16523 -1.07411 11.3764 4.20159 -12.0559 2.56819 -2.26928 -8.319 6.84671 -17.9739 0.358089 7.79605 -1.63976 4.19811 -11.9724 -4.18724 3.64482 1.32346 0.423413 0 0 0 15.5248 7.34215 3.22961 -68.9404 -42.9153 -45.6395 22.0111 -23.1097 -1.48042 0 0 0 -16.3128 -7.28928 -0.116038 50.3132 -56.4348 41.6519 -25.8958 -20.3813 17.6133 0 0 0 -0.845912 5.73819 16.2772 
-40.9922 1.9236 -44.9411 1.60103 1.97528 73.3304 9.29044 -8.65202 7.17194 -1.06988 11.3611 4.18831 -12.0636 2.5716 -2.26108 -8.31441 6.86742 -17.9605 0.370462 7.7694 -1.65328 4.19775 -11.9682 -4.19474 3.65466 1.32606 0.416612 0 0 0 15.5442 7.35838 3.23537 -68.8902 -42.8964 -45.5915 22.1312 -23.1342 -1.40489 0 0 0 -16.2986 -7.2983 -0.0492994 50.2924 -56.3966 41.6417 -25.9473 -20.3388 17.593 0 0 0 -0.878726 5.74522 16.4344 
-40.9847 1.9236 -44.9411 1.58396 1.98322 73.3328 9.28839 -8.6608 7.1802 -1.06318 11.3563 4.17998 -12.0697 2.5714 -2.25837 -8.32232 6.8684 -17.9376 0.382109 7.74864 -1.67137 4.19894 -11.9648 -4.20368 3.64191 1.32226 0.432815 0 0 0 15.5765 7.36915 3.22406 -68.8489 -42.8821 -45.549 22.2747 -23.1584 -1.33183 0 0 0 -16.2713 -7.3001 0.00252043 50.2858 -56.363 41.6489 -26.0025 -20.305 17.576 0 0 0 -0.924314 5.7533 16.5539 
-40.9746 1.9211 -44.9436 1.57112 1.98449 73.3323 9.28637 -8.65883 7.18947 -1.05851 11.3373 4.17133 -12.0741 2.5735 -2.25708 -8.33833 6.86259 -17.8902 0.402875 7.73031 -1.7055 4.19566 -11.9541 -4.21394 3.63131 1.33686 0.449522 0 0 0 15.6093 7.36189 3.21987 -68.7895 -42.8603 -45.4887 22.4239 -23.2006 -1.25424 0 0 0 -16.2425 -7.31699 0.0655336 50.24 -56.3344 41.61 -26.0514 -20.2834 17.552 0 0 0 -0.96124 5.75689 16.6782 
